<svg aria-hidden="true" style="position:absolute;width:0;height:0;overflow:hidden" xmlns="http://www.w3.org/2000/svg"><defs><symbol id="icon-comment" viewBox="0 0 32 32"><path d="M29.333 5.333c0-1.467-1.2-2.667-2.667-2.667H5.333a2.675 2.675 0 0 0-2.667 2.667v16C2.666 22.8 3.866 24 5.333 24H24l5.333 5.333v-24z"/></symbol><symbol id="icon-like" viewBox="0 0 32 32"><path d="M2.667 11.2a7.207 7.207 0 0 1 4.537-6.69A7.193 7.193 0 0 1 10 4.001a7.973 7.973 0 0 1 6 2.666 7.983 7.983 0 0 1 6-2.666 7.19 7.19 0 0 1 5.177 2.061 7.192 7.192 0 0 1 2.156 5.138c0 7.141-8.505 12.533-13.333 16.8-4.817-4.303-13.333-9.653-13.333-16.8z"/></symbol><symbol id="icon-block" viewBox="0 0 32 32"><path d="M0 0h8.727v8.727H0V0zm11.636 0h8.727v8.727h-8.727V0zm11.637 0H32v8.727h-8.727V0zM0 11.636h8.727v8.727H0v-8.727zm0 11.637h8.727V32H0v-8.727zm11.636-11.637h8.727v8.727h-8.727v-8.727zm0 11.637h8.727V32h-8.727v-8.727zm11.637-11.637H32v8.727h-8.727v-8.727zm0 11.637H32V32h-8.727v-8.727z"/></symbol><symbol id="icon-list" viewBox="0 0 35 32"><path d="M0 0h8.727v8.727H0V0zm0 11.636h8.727v8.727H0v-8.727zm0 11.637h8.727V32H0v-8.727zm13.091-8.728h21.818v2.909H13.091v-2.909zm0 11.637h21.818v2.909H13.091v-2.909zm0-23.273h21.818v2.909H13.091V2.909z"/></symbol><symbol id="icon-close" viewBox="0 0 32 32"><path d="M23.543 21.657 17.886 16l5.657-5.657-1.886-1.886L16 14.114l-5.657-5.657-1.886 1.886L14.114 16l-5.657 5.657 1.886 1.886L16 17.886l5.657 5.657 1.886-1.886z"/></symbol><symbol id="icon-calendar" viewBox="0 0 32 32"><path d="M9.333 14.667H12v2.667H9.333v-2.667zm0 5.333H12v2.667H9.333V20zm5.334-5.333h2.667v2.667h-2.667v-2.667zm0 5.333h2.667v2.667h-2.667V20zM20 14.667h2.667v2.667H20v-2.667zM20 20h2.667v2.667H20V20z"/><path d="M6.667 29.333h18.667a2.67 2.67 0 0 0 2.667-2.667V7.999a2.67 2.67 0 0 0-2.667-2.667h-2.667V2.665H20v2.667h-8V2.665H9.333v2.667H6.666a2.67 2.67 0 0 0-2.667 2.667v18.667a2.67 2.67 0 0 0 2.667 2.667zm18.666-18.666.001 16H6.666v-16h18.667z"/></symbol></defs></svg>