<svg aria-hidden="true" style="position: absolute; width: 0; height: 0; overflow: hidden;" version="1.1"
     xmlns="http://www.w3.org/2000/svg" xmlns:xlink="http://www.w3.org/1999/xlink">
    <defs>
        <symbol id="icon-comment" viewBox="0 0 32 32">
            <path d="M29.333 5.333c0-1.467-1.2-2.667-2.667-2.667h-21.333c-1.467 0-2.667 1.2-2.667 2.667v16c0 1.467 1.2 2.667 2.667 2.667h18.667l5.333 5.333v-24z"></path>
        </symbol>
        <symbol id="icon-like" viewBox="0 0 32 32">
            <path d="M2.667 11.2c-0-0.957 0.19-1.904 0.561-2.786s0.912-1.682 1.595-2.352c0.683-0.67 1.492-1.198 2.381-1.552s1.84-0.527 2.796-0.509c1.132-0.006 2.252 0.229 3.287 0.688s1.959 1.134 2.713 1.978c0.754-0.844 1.679-1.519 2.713-1.978s2.155-0.694 3.287-0.688c0.957-0.018 1.907 0.155 2.796 0.509s1.698 0.881 2.381 1.552c0.683 0.67 1.225 1.47 1.595 2.352s0.561 1.83 0.561 2.786c0 7.141-8.505 12.533-13.333 16.8-4.817-4.303-13.333-9.653-13.333-16.8z"></path>
        </symbol>
        <symbol id="icon-block" viewBox="0 0 32 32">
            <path d="M0 0h8.727v8.727h-8.727v-8.727z"></path>
            <path d="M11.636 0h8.727v8.727h-8.727v-8.727z"></path>
            <path d="M23.273 0h8.727v8.727h-8.727v-8.727z"></path>
            <path d="M0 11.636h8.727v8.727h-8.727v-8.727z"></path>
            <path d="M0 23.273h8.727v8.727h-8.727v-8.727z"></path>
            <path d="M11.636 11.636h8.727v8.727h-8.727v-8.727z"></path>
            <path d="M11.636 23.273h8.727v8.727h-8.727v-8.727z"></path>
            <path d="M23.273 11.636h8.727v8.727h-8.727v-8.727z"></path>
            <path d="M23.273 23.273h8.727v8.727h-8.727v-8.727z"></path>
        </symbol>
        <symbol id="icon-list" viewBox="0 0 35 32">
            <path d="M0 0h8.727v8.727h-8.727v-8.727z"></path>
            <path d="M0 11.636h8.727v8.727h-8.727v-8.727z"></path>
            <path d="M0 23.273h8.727v8.727h-8.727v-8.727z"></path>
            <path d="M13.091 14.545h21.818v2.909h-21.818v-2.909z"></path>
            <path d="M13.091 26.182h21.818v2.909h-21.818v-2.909z"></path>
            <path d="M13.091 2.909h21.818v2.909h-21.818v-2.909z"></path>
        </symbol>
    </defs>
</svg>
